<?xml version="1.0" encoding="iso-8859-1"?>
<!-- Generator: Adobe Illustrator 19.0.0, SVG Export Plug-In . SVG Version: 6.00 Build 0)  -->
<svg version="1.1" id="Layer_1" xmlns="http://www.w3.org/2000/svg" xmlns:xlink="http://www.w3.org/1999/xlink" x="0px" y="0px"
	 viewBox="0 0 472.615 472.615" style="enable-background:new 0 0 472.615 472.615;" xml:space="preserve">
<g>
	<g>
		<path d="M424.328,132.331h-71.549v53.573c12.593,6.574,20.143,17.36,20.143,29.897c0,20.882-21.099,36.621-49.078,36.621
			c-27.98,0-49.078-15.739-49.078-36.621c0-12.537,7.549-23.323,20.142-29.897v-53.573H177.706v53.573
			c12.593,6.574,20.142,17.36,20.142,29.897c0,20.882-21.098,36.621-49.078,36.621c-27.979,0-49.078-15.739-49.078-36.621
			c0-12.537,7.55-23.323,20.143-29.897v-53.573H48.288L17.252,472.615h438.111L424.328,132.331z"/>
	</g>
</g>
<g>
	<g>
		<path d="M333.489,199.477V97.185C333.489,43.601,289.892,0,236.308,0c-53.586,0-97.182,43.601-97.182,97.185v102.292
			c-11.688,2.343-20.141,8.73-20.141,16.326c0,9.572,13.337,17.333,29.788,17.333c16.452,0,29.788-7.761,29.788-17.333
			c0-7.596-8.453-13.985-20.143-16.326V97.185c0-42.951,34.94-77.896,77.892-77.896c42.951,0,77.891,34.945,77.891,77.896v102.292
			c-11.689,2.343-20.142,8.73-20.142,16.326c0,9.572,13.337,17.333,29.787,17.333c16.451,0,29.788-7.761,29.788-17.333
			C353.63,208.207,345.178,201.821,333.489,199.477z"/>
	</g>
</g>
<g>
</g>
<g>
</g>
<g>
</g>
<g>
</g>
<g>
</g>
<g>
</g>
<g>
</g>
<g>
</g>
<g>
</g>
<g>
</g>
<g>
</g>
<g>
</g>
<g>
</g>
<g>
</g>
<g>
</g>
</svg>
